<svg width="92" height="45" viewBox="0 0 92 45" fill="none" xmlns="http://www.w3.org/2000/svg">
<g clip-path="url(#clip0_1_669)">
<path d="M22.0955 12.2643H19.9697V14.3083H22.0955V12.2643Z" fill="white"/>
<path d="M22.0955 14.3082H19.9697V16.3523H22.0955V14.3082Z" fill="white"/>
<path d="M22.0955 16.3523H19.9697V18.3963H22.0955V16.3523Z" fill="white"/>
<path d="M19.9697 10.2203H17.8439V12.2644H19.9697V10.2203Z" fill="white"/>
<path d="M19.9697 12.2643H17.8439V14.3083H19.9697V12.2643Z" fill="white"/>
<path d="M19.9697 14.3082H17.8439V16.3523H19.9697V14.3082Z" fill="white"/>
<path d="M19.9697 16.3523H17.8439V18.3963H19.9697V16.3523Z" fill="white"/>
<path d="M19.9697 18.3962H17.8439V20.4403H19.9697V18.3962Z" fill="white"/>
<path d="M17.8712 8.17615H15.7454V10.2202H17.8712V8.17615Z" fill="white"/>
<path d="M17.8712 10.2203H15.7454V12.2644H17.8712V10.2203Z" fill="white"/>
<path d="M17.8712 12.2643H15.7454V14.3083H17.8712V12.2643Z" fill="white"/>
<path d="M17.8712 14.3082H15.7454V16.3523H17.8712V14.3082Z" fill="white"/>
<path d="M17.8712 16.3523H15.7454V18.3963H17.8712V16.3523Z" fill="white"/>
<path d="M17.8712 18.3962H15.7454V20.4403H17.8712V18.3962Z" fill="white"/>
<path d="M17.8712 20.4404H15.7454V22.4845H17.8712V20.4404Z" fill="white"/>
<path d="M28.4456 20.4404H26.3198V22.4845H28.4456V20.4404Z" fill="white"/>
<path d="M28.4456 22.4844H26.3198V24.5284H28.4456V22.4844Z" fill="white"/>
<path d="M30.5441 22.4844H28.4184V24.5284H30.5441V22.4844Z" fill="white"/>
<path d="M28.4456 24.5283H26.3198V26.5723H28.4456V24.5283Z" fill="white"/>
<path d="M26.3198 18.3962H24.1941V20.4403H26.3198V18.3962Z" fill="white"/>
<path d="M26.3198 20.4404H24.1941V22.4845H26.3198V20.4404Z" fill="white"/>
<path d="M26.3198 22.4844H24.1941V24.5284H26.3198V22.4844Z" fill="white"/>
<path d="M24.2213 16.3523H22.0955V18.3963H24.2213V16.3523Z" fill="white"/>
<path d="M24.2213 18.3962H22.0955V20.4403H24.2213V18.3962Z" fill="white"/>
<path d="M28.4456 4.08813H26.3198V6.13216H28.4456V4.08813Z" fill="white"/>
<path d="M28.4456 6.1322H26.3198V8.17623H28.4456V6.1322Z" fill="white"/>
<path d="M30.5441 6.1322H28.4184V8.17623H30.5441V6.1322Z" fill="white"/>
<path d="M28.4456 8.17615H26.3198V10.2202H28.4456V8.17615Z" fill="white"/>
<path d="M26.3198 6.1322H24.1941V8.17623H26.3198V6.1322Z" fill="white"/>
<path d="M26.3198 8.17615H24.1941V10.2202H26.3198V8.17615Z" fill="white"/>
<path d="M26.3198 10.2203H24.1941V12.2644H26.3198V10.2203Z" fill="white"/>
<path d="M24.2213 10.2203H22.0955V12.2644H24.2213V10.2203Z" fill="white"/>
<path d="M24.2213 12.2643H22.0955V14.3083H24.2213V12.2643Z" fill="white"/>
<path d="M36.8942 12.2643H34.7685V14.3083H36.8942V12.2643Z" fill="white"/>
<path d="M36.8942 14.3082H34.7685V16.3523H36.8942V14.3082Z" fill="white"/>
<path d="M39.02 14.3082H36.8943V16.3523H39.02V14.3082Z" fill="white"/>
<path d="M36.8942 16.3523H34.7685V18.3963H36.8942V16.3523Z" fill="white"/>
<path d="M34.7957 10.2203H32.6699V12.2644H34.7957V10.2203Z" fill="white"/>
<path d="M34.7957 12.2643H32.6699V14.3083H34.7957V12.2643Z" fill="white"/>
<path d="M34.7957 14.3082H32.6699V16.3523H34.7957V14.3082Z" fill="white"/>
<path d="M34.7957 16.3523H32.6699V18.3963H34.7957V16.3523Z" fill="white"/>
<path d="M34.7957 18.3962H32.6699V20.4403H34.7957V18.3962Z" fill="white"/>
<path d="M32.6699 8.17615H30.5442V10.2202H32.6699V8.17615Z" fill="white"/>
<path d="M32.6699 10.2203H30.5442V12.2644H32.6699V10.2203Z" fill="white"/>
<path d="M32.6699 12.2643H30.5442V14.3083H32.6699V12.2643Z" fill="white"/>
<path d="M32.6699 14.3082H30.5442V16.3523H32.6699V14.3082Z" fill="white"/>
<path d="M32.6699 16.3523H30.5442V18.3963H32.6699V16.3523Z" fill="white"/>
<path d="M32.6699 18.3962H30.5442V20.4403H32.6699V18.3962Z" fill="white"/>
<path d="M32.6699 20.4404H30.5442V22.4845H32.6699V20.4404Z" fill="white"/>
<path d="M24.194 14.3082H26.3198V12.2642H24.194V14.3082Z" fill="white"/>
<path d="M24.194 16.3523H26.3198V14.3083H24.194V16.3523Z" fill="white"/>
<path d="M22.0683 16.3523H24.1941V14.3083H22.0683V16.3523Z" fill="white"/>
<path d="M24.194 18.3962H26.3198V16.3522H24.194V18.3962Z" fill="white"/>
<path d="M26.2926 12.2643H28.4184V10.2203H26.2926V12.2643Z" fill="white"/>
<path d="M26.2926 14.3082H28.4184V12.2642H26.2926V14.3082Z" fill="white"/>
<path d="M26.2926 16.3523H28.4184V14.3083H26.2926V16.3523Z" fill="white"/>
<path d="M26.2926 18.3962H28.4184V16.3522H26.2926V18.3962Z" fill="white"/>
<path d="M26.2926 20.4404H28.4184V18.3964H26.2926V20.4404Z" fill="white"/>
<path d="M28.4184 10.2203H30.5442V8.17631H28.4184V10.2203Z" fill="white"/>
<path d="M28.4184 12.2643H30.5442V10.2203H28.4184V12.2643Z" fill="white"/>
<path d="M28.4184 14.3082H30.5442V12.2642H28.4184V14.3082Z" fill="white"/>
<path d="M28.4184 16.3523H30.5442V14.3083H28.4184V16.3523Z" fill="white"/>
<path d="M28.4184 18.3962H30.5442V16.3522H28.4184V18.3962Z" fill="white"/>
<path d="M28.4184 20.4404H30.5442V18.3964H28.4184V20.4404Z" fill="white"/>
<path d="M28.4184 22.4844H30.5442V20.4403H28.4184V22.4844Z" fill="white"/>
<path d="M66.5463 10.2203H64.4205V12.2644H66.5463V10.2203Z" fill="white"/>
<path d="M66.5463 12.2643H64.4205V14.3083H66.5463V12.2643Z" fill="white"/>
<path d="M66.5463 14.3082H64.4205V16.3523H66.5463V14.3082Z" fill="white"/>
<path d="M66.5463 16.3523H64.4205V18.3963H66.5463V16.3523Z" fill="white"/>
<path d="M66.5463 18.3962H64.4205V20.4403H66.5463V18.3962Z" fill="white"/>
<path d="M64.4205 8.17615H62.2947V10.2202H64.4205V8.17615Z" fill="white"/>
<path d="M64.4205 10.2203H62.2947V12.2644H64.4205V10.2203Z" fill="white"/>
<path d="M64.4205 12.2643H62.2947V14.3083H64.4205V12.2643Z" fill="white"/>
<path d="M64.4205 14.3082H62.2947V16.3523H64.4205V14.3082Z" fill="white"/>
<path d="M64.4205 16.3523H62.2947V18.3963H64.4205V16.3523Z" fill="white"/>
<path d="M64.4205 18.3962H62.2947V20.4403H64.4205V18.3962Z" fill="white"/>
<path d="M64.4205 20.4404H62.2947V22.4845H64.4205V20.4404Z" fill="white"/>
<path d="M62.2946 8.17615H60.1689V10.2202H62.2946V8.17615Z" fill="white"/>
<path d="M62.2946 6.1322H60.1689V8.17623H62.2946V6.1322Z" fill="white"/>
<path d="M62.2946 22.4844H60.1689V24.5284H62.2946V22.4844Z" fill="white"/>
<path d="M62.2946 10.2203H60.1689V12.2644H62.2946V10.2203Z" fill="white"/>
<path d="M62.2946 12.2643H60.1689V14.3083H62.2946V12.2643Z" fill="white"/>
<path d="M62.2946 14.3082H60.1689V16.3523H62.2946V14.3082Z" fill="white"/>
<path d="M62.2946 16.3523H60.1689V18.3963H62.2946V16.3523Z" fill="white"/>
<path d="M62.2946 18.3962H60.1689V20.4403H62.2946V18.3962Z" fill="white"/>
<path d="M62.2946 20.4404H60.1689V22.4845H62.2946V20.4404Z" fill="white"/>
<path d="M7.26958 20.4404H5.1438V22.4845H7.26958V20.4404Z" fill="white"/>
<path d="M7.26958 22.4844H5.1438V24.5284H7.26958V22.4844Z" fill="white"/>
<path d="M9.39531 22.4844H7.26953V24.5284H9.39531V22.4844Z" fill="white"/>
<path d="M7.26958 24.5283H5.1438V26.5723H7.26958V24.5283Z" fill="white"/>
<path d="M5.17102 18.3962H3.04523V20.4403H5.17102V18.3962Z" fill="white"/>
<path d="M5.17102 20.4404H3.04523V22.4845H5.17102V20.4404Z" fill="white"/>
<path d="M5.17102 22.4844H3.04523V24.5284H5.17102V22.4844Z" fill="white"/>
<path d="M5.17102 24.5283H3.04523V26.5723H5.17102V24.5283Z" fill="white"/>
<path d="M5.17102 26.5724H3.04523V28.6164H5.17102V26.5724Z" fill="white"/>
<path d="M3.04522 16.3523H0.919434V18.3963H3.04522V16.3523Z" fill="white"/>
<path d="M3.04522 18.3962H0.919434V20.4403H3.04522V18.3962Z" fill="white"/>
<path d="M3.04522 20.4404H0.919434V22.4845H3.04522V20.4404Z" fill="white"/>
<path d="M3.04522 22.4844H0.919434V24.5284H3.04522V22.4844Z" fill="white"/>
<path d="M3.04522 24.5283H0.919434V26.5723H3.04522V24.5283Z" fill="white"/>
<path d="M3.04522 26.5724H0.919434V28.6164H3.04522V26.5724Z" fill="white"/>
<path d="M3.04522 28.6163H0.919434V30.6604H3.04522V28.6163Z" fill="white"/>
<path d="M7.26958 4.08813H5.1438V6.13216H7.26958V4.08813Z" fill="white"/>
<path d="M7.26958 6.1322H5.1438V8.17623H7.26958V6.1322Z" fill="white"/>
<path d="M9.39531 6.1322H7.26953V8.17623H9.39531V6.1322Z" fill="white"/>
<path d="M7.26958 8.17615H5.1438V10.2202H7.26958V8.17615Z" fill="white"/>
<path d="M5.17102 2.04419H3.04523V4.08821H5.17102V2.04419Z" fill="white"/>
<path d="M5.17102 4.08813H3.04523V6.13216H5.17102V4.08813Z" fill="white"/>
<path d="M5.17102 6.1322H3.04523V8.17623H5.17102V6.1322Z" fill="white"/>
<path d="M5.17102 8.17615H3.04523V10.2202H5.17102V8.17615Z" fill="white"/>
<path d="M5.17102 10.2203H3.04523V12.2644H5.17102V10.2203Z" fill="white"/>
<path d="M3.04522 0H0.919434V2.04403H3.04522V0Z" fill="white"/>
<path d="M3.04522 2.04419H0.919434V4.08821H3.04522V2.04419Z" fill="white"/>
<path d="M3.04522 4.08813H0.919434V6.13216H3.04522V4.08813Z" fill="white"/>
<path d="M3.04522 6.1322H0.919434V8.17623H3.04522V6.1322Z" fill="white"/>
<path d="M3.04522 8.17615H0.919434V10.2202H3.04522V8.17615Z" fill="white"/>
<path d="M3.04522 10.2203H0.919434V12.2644H3.04522V10.2203Z" fill="white"/>
<path d="M3.04522 12.2643H0.919434V14.3083H3.04522V12.2643Z" fill="white"/>
<path d="M15.7454 12.2643H13.6196V14.3083H15.7454V12.2643Z" fill="white"/>
<path d="M15.7454 14.3082H13.6196V16.3523H15.7454V14.3082Z" fill="white"/>
<path d="M15.7454 16.3523H13.6196V18.3963H15.7454V16.3523Z" fill="white"/>
<path d="M13.6196 10.2203H11.4938V12.2644H13.6196V10.2203Z" fill="white"/>
<path d="M13.6196 12.2643H11.4938V14.3083H13.6196V12.2643Z" fill="white"/>
<path d="M13.6196 14.3082H11.4938V16.3523H13.6196V14.3082Z" fill="white"/>
<path d="M13.6196 16.3523H11.4938V18.3963H13.6196V16.3523Z" fill="white"/>
<path d="M13.6196 18.3962H11.4938V20.4403H13.6196V18.3962Z" fill="white"/>
<path d="M11.5211 8.17615H9.39532V10.2202H11.5211V8.17615Z" fill="white"/>
<path d="M11.5211 10.2203H9.39532V12.2644H11.5211V10.2203Z" fill="white"/>
<path d="M11.5211 12.2643H9.39532V14.3083H11.5211V12.2643Z" fill="white"/>
<path d="M11.5211 14.3082H9.39532V16.3523H11.5211V14.3082Z" fill="white"/>
<path d="M11.5211 16.3523H9.39532V18.3963H11.5211V16.3523Z" fill="white"/>
<path d="M11.5211 18.3962H9.39532V20.4403H11.5211V18.3962Z" fill="white"/>
<path d="M11.5211 20.4404H9.39532V22.4845H11.5211V20.4404Z" fill="white"/>
<path d="M3.01802 14.3082H5.14381V12.2642H3.01802V14.3082Z" fill="white"/>
<path d="M3.01802 16.3523H5.14381V14.3083H3.01802V16.3523Z" fill="white"/>
<path d="M0.919434 16.3523H3.04522V14.3083H0.919434V16.3523Z" fill="white"/>
<path d="M3.01802 18.3962H5.14381V16.3522H3.01802V18.3962Z" fill="white"/>
<path d="M5.14374 12.2643H7.26953V10.2203H5.14374V12.2643Z" fill="white"/>
<path d="M5.14374 14.3082H7.26953V12.2642H5.14374V14.3082Z" fill="white"/>
<path d="M5.14374 16.3523H7.26953V14.3083H5.14374V16.3523Z" fill="white"/>
<path d="M5.14374 18.3962H7.26953V16.3522H5.14374V18.3962Z" fill="white"/>
<path d="M5.14374 20.4404H7.26953V18.3964H5.14374V20.4404Z" fill="white"/>
<path d="M7.26955 10.2203H9.39533V8.17631H7.26955V10.2203Z" fill="white"/>
<path d="M7.26955 12.2643H9.39533V10.2203H7.26955V12.2643Z" fill="white"/>
<path d="M7.26955 14.3082H9.39533V12.2642H7.26955V14.3082Z" fill="white"/>
<path d="M7.26955 16.3523H9.39533V14.3083H7.26955V16.3523Z" fill="white"/>
<path d="M7.26955 18.3962H9.39533V16.3522H7.26955V18.3962Z" fill="white"/>
<path d="M7.26955 20.4404H9.39533V18.3964H7.26955V20.4404Z" fill="white"/>
<path d="M7.26955 22.4844H9.39533V20.4403H7.26955V22.4844Z" fill="white"/>
<path d="M85.5692 22.4844H87.695V20.4403H85.5692V22.4844Z" fill="white"/>
<path d="M85.5692 24.5283H87.695V22.4843H85.5692V24.5283Z" fill="white"/>
<path d="M83.4435 24.5283H85.5693V22.4843H83.4435V24.5283Z" fill="white"/>
<path d="M85.5692 26.5724H87.695V24.5284H85.5692V26.5724Z" fill="white"/>
<path d="M87.6678 20.4404H89.7936V18.3964H87.6678V20.4404Z" fill="white"/>
<path d="M87.6678 22.4844H89.7936V20.4403H87.6678V22.4844Z" fill="white"/>
<path d="M87.6678 24.5283H89.7936V22.4843H87.6678V24.5283Z" fill="white"/>
<path d="M87.6678 26.5724H89.7936V24.5284H87.6678V26.5724Z" fill="white"/>
<path d="M87.6678 28.6163H89.7936V26.5723H87.6678V28.6163Z" fill="white"/>
<path d="M89.7936 18.3962H91.9194V16.3522H89.7936V18.3962Z" fill="white"/>
<path d="M89.7936 20.4404H91.9194V18.3964H89.7936V20.4404Z" fill="white"/>
<path d="M89.7936 22.4844H91.9194V20.4403H89.7936V22.4844Z" fill="white"/>
<path d="M89.7936 24.5283H91.9194V22.4843H89.7936V24.5283Z" fill="white"/>
<path d="M89.7936 26.5724H91.9194V24.5284H89.7936V26.5724Z" fill="white"/>
<path d="M89.7936 28.6163H91.9194V26.5723H89.7936V28.6163Z" fill="white"/>
<path d="M89.7936 30.6605H91.9194V28.6165H89.7936V30.6605Z" fill="white"/>
<path d="M85.5692 6.1322H87.695V4.08818H85.5692V6.1322Z" fill="white"/>
<path d="M85.5692 8.17615H87.695V6.13212H85.5692V8.17615Z" fill="white"/>
<path d="M83.4435 8.17615H85.5693V6.13212H83.4435V8.17615Z" fill="white"/>
<path d="M85.5692 10.2203H87.695V8.17631H85.5692V10.2203Z" fill="white"/>
<path d="M87.6678 4.08813H89.7936V2.04411H87.6678V4.08813Z" fill="white"/>
<path d="M87.6678 6.1322H89.7936V4.08818H87.6678V6.1322Z" fill="white"/>
<path d="M87.6678 8.17615H89.7936V6.13212H87.6678V8.17615Z" fill="white"/>
<path d="M87.6678 10.2203H89.7936V8.17631H87.6678V10.2203Z" fill="white"/>
<path d="M87.6678 12.2643H89.7936V10.2203H87.6678V12.2643Z" fill="white"/>
<path d="M89.7936 2.04419H91.9194V0.000164032H89.7936V2.04419Z" fill="white"/>
<path d="M89.7936 4.08813H91.9194V2.04411H89.7936V4.08813Z" fill="white"/>
<path d="M89.7936 6.1322H91.9194V4.08818H89.7936V6.1322Z" fill="white"/>
<path d="M89.7936 8.17615H91.9194V6.13212H89.7936V8.17615Z" fill="white"/>
<path d="M89.7936 10.2203H91.9194V8.17631H89.7936V10.2203Z" fill="white"/>
<path d="M89.7936 12.2643H91.9194V10.2203H89.7936V12.2643Z" fill="white"/>
<path d="M89.7936 14.3082H91.9194V12.2642H89.7936V14.3082Z" fill="white"/>
<path d="M77.0934 14.3082H79.2192V12.2642H77.0934V14.3082Z" fill="white"/>
<path d="M77.0934 16.3523H79.2192V14.3083H77.0934V16.3523Z" fill="white"/>
<path d="M77.0934 18.3962H79.2192V16.3522H77.0934V18.3962Z" fill="white"/>
<path d="M79.2192 12.2643H81.345V10.2203H79.2192V12.2643Z" fill="white"/>
<path d="M79.2192 14.3082H81.345V12.2642H79.2192V14.3082Z" fill="white"/>
<path d="M79.2192 16.3523H81.345V14.3083H79.2192V16.3523Z" fill="white"/>
<path d="M79.2192 18.3962H81.345V16.3522H79.2192V18.3962Z" fill="white"/>
<path d="M79.2192 20.4404H81.345V18.3964H79.2192V20.4404Z" fill="white"/>
<path d="M81.345 10.2203H83.4708V8.17631H81.345V10.2203Z" fill="white"/>
<path d="M81.345 12.2643H83.4708V10.2203H81.345V12.2643Z" fill="white"/>
<path d="M81.345 14.3082H83.4708V12.2642H81.345V14.3082Z" fill="white"/>
<path d="M81.345 16.3523H83.4708V14.3083H81.345V16.3523Z" fill="white"/>
<path d="M81.345 18.3962H83.4708V16.3522H81.345V18.3962Z" fill="white"/>
<path d="M81.345 20.4404H83.4708V18.3964H81.345V20.4404Z" fill="white"/>
<path d="M81.345 22.4844H83.4708V20.4403H81.345V22.4844Z" fill="white"/>
<path d="M89.8208 12.2643H87.695V14.3083H89.8208V12.2643Z" fill="white"/>
<path d="M89.8208 14.3082H87.695V16.3523H89.8208V14.3082Z" fill="white"/>
<path d="M91.9194 14.3082H89.7936V16.3523H91.9194V14.3082Z" fill="white"/>
<path d="M89.8208 16.3523H87.695V18.3963H89.8208V16.3523Z" fill="white"/>
<path d="M87.6951 10.2203H85.5693V12.2644H87.6951V10.2203Z" fill="white"/>
<path d="M87.6951 12.2643H85.5693V14.3083H87.6951V12.2643Z" fill="white"/>
<path d="M87.6951 14.3082H85.5693V16.3523H87.6951V14.3082Z" fill="white"/>
<path d="M87.6951 16.3523H85.5693V18.3963H87.6951V16.3523Z" fill="white"/>
<path d="M87.6951 18.3962H85.5693V20.4403H87.6951V18.3962Z" fill="white"/>
<path d="M85.5966 8.17615H83.4708V10.2202H85.5966V8.17615Z" fill="white"/>
<path d="M85.5966 10.2203H83.4708V12.2644H85.5966V10.2203Z" fill="white"/>
<path d="M85.5966 12.2643H83.4708V14.3083H85.5966V12.2643Z" fill="white"/>
<path d="M85.5966 14.3082H83.4708V16.3523H85.5966V14.3082Z" fill="white"/>
<path d="M85.5966 16.3523H83.4708V18.3963H85.5966V16.3523Z" fill="white"/>
<path d="M85.5966 18.3962H83.4708V20.4403H85.5966V18.3962Z" fill="white"/>
<path d="M85.5966 20.4404H83.4708V22.4845H85.5966V20.4404Z" fill="white"/>
<path d="M38.9928 14.3082H41.1186V12.2642H38.9928V14.3082Z" fill="white"/>
<path d="M38.9928 16.3523H41.1186V14.3083H38.9928V16.3523Z" fill="white"/>
<path d="M38.9928 18.3962H41.1186V16.3522H38.9928V18.3962Z" fill="white"/>
<path d="M41.1186 12.2643H43.2444V10.2203H41.1186V12.2643Z" fill="white"/>
<path d="M41.1186 14.3082H43.2444V12.2642H41.1186V14.3082Z" fill="white"/>
<path d="M41.1186 16.3523H43.2444V14.3083H41.1186V16.3523Z" fill="white"/>
<path d="M41.1186 18.3962H43.2444V16.3522H41.1186V18.3962Z" fill="white"/>
<path d="M41.1186 20.4404H43.2444V18.3964H41.1186V20.4404Z" fill="white"/>
<path d="M43.2444 10.2203H45.3701V8.17631H43.2444V10.2203Z" fill="white"/>
<path d="M43.2444 12.2643H45.3701V10.2203H43.2444V12.2643Z" fill="white"/>
<path d="M43.2444 14.3082H45.3701V12.2642H43.2444V14.3082Z" fill="white"/>
<path d="M43.2444 16.3523H45.3701V14.3083H43.2444V16.3523Z" fill="white"/>
<path d="M43.2444 18.3962H45.3701V16.3522H43.2444V18.3962Z" fill="white"/>
<path d="M43.2444 20.4404H45.3701V18.3964H43.2444V20.4404Z" fill="white"/>
<path d="M43.2444 22.4844H45.3701V20.4403H43.2444V22.4844Z" fill="white"/>
<path d="M68.6448 14.3082H66.519V16.3523H68.6448V14.3082Z" fill="white"/>
<path d="M68.6448 14.3082H70.7706V12.2642H68.6448V14.3082Z" fill="white"/>
<path d="M68.6448 16.3523H70.7706V14.3083H68.6448V16.3523Z" fill="white"/>
<path d="M68.6448 18.3962H70.7706V16.3522H68.6448V18.3962Z" fill="white"/>
<path d="M70.7433 12.2643H72.8691V10.2203H70.7433V12.2643Z" fill="white"/>
<path d="M70.7433 14.3082H72.8691V12.2642H70.7433V14.3082Z" fill="white"/>
<path d="M70.7433 16.3523H72.8691V14.3083H70.7433V16.3523Z" fill="white"/>
<path d="M70.7433 18.3962H72.8691V16.3522H70.7433V18.3962Z" fill="white"/>
<path d="M70.7433 20.4404H72.8691V18.3964H70.7433V20.4404Z" fill="white"/>
<path d="M72.8691 10.2203H74.9949V8.17631H72.8691V10.2203Z" fill="white"/>
<path d="M72.8691 12.2643H74.9949V10.2203H72.8691V12.2643Z" fill="white"/>
<path d="M72.8691 14.3082H74.9949V12.2642H72.8691V14.3082Z" fill="white"/>
<path d="M72.8691 16.3523H74.9949V14.3083H72.8691V16.3523Z" fill="white"/>
<path d="M72.8691 18.3962H74.9949V16.3522H72.8691V18.3962Z" fill="white"/>
<path d="M72.8691 20.4404H74.9949V18.3964H72.8691V20.4404Z" fill="white"/>
<path d="M74.9948 12.2643H77.1206V10.2203H74.9948V12.2643Z" fill="white"/>
<path d="M74.9948 14.3082H77.1206V12.2642H74.9948V14.3082Z" fill="white"/>
<path d="M74.9948 16.3523H77.1206V14.3083H74.9948V16.3523Z" fill="white"/>
<path d="M74.9948 18.3962H77.1206V16.3522H74.9948V18.3962Z" fill="white"/>
<path d="M74.9948 20.4404H77.1206V18.3964H74.9948V20.4404Z" fill="white"/>
<path d="M72.8691 22.4844H74.9949V20.4403H72.8691V22.4844Z" fill="white"/>
<path d="M53.8188 22.4844H55.9445V20.4403H53.8188V22.4844Z" fill="white"/>
<path d="M53.8188 24.5283H55.9445V22.4843H53.8188V24.5283Z" fill="white"/>
<path d="M51.693 24.5283H53.8188V22.4843H51.693V24.5283Z" fill="white"/>
<path d="M53.8188 26.5724H55.9445V24.5284H53.8188V26.5724Z" fill="white"/>
<path d="M55.9446 20.4404H58.0703V18.3964H55.9446V20.4404Z" fill="white"/>
<path d="M55.9446 22.4844H58.0703V20.4403H55.9446V22.4844Z" fill="white"/>
<path d="M55.9446 24.5283H58.0703V22.4843H55.9446V24.5283Z" fill="white"/>
<path d="M55.9446 26.5724H58.0703V24.5284H55.9446V26.5724Z" fill="white"/>
<path d="M55.9446 28.6163H58.0703V26.5723H55.9446V28.6163Z" fill="white"/>
<path d="M58.0431 18.3962H60.1689V16.3522H58.0431V18.3962Z" fill="white"/>
<path d="M58.0431 20.4404H60.1689V18.3964H58.0431V20.4404Z" fill="white"/>
<path d="M58.0431 22.4844H60.1689V20.4403H58.0431V22.4844Z" fill="white"/>
<path d="M58.0431 24.5283H60.1689V22.4843H58.0431V24.5283Z" fill="white"/>
<path d="M58.0431 26.5724H60.1689V24.5284H58.0431V26.5724Z" fill="white"/>
<path d="M58.0431 28.6163H60.1689V26.5723H58.0431V28.6163Z" fill="white"/>
<path d="M58.0431 30.6605H60.1689V28.6165H58.0431V30.6605Z" fill="white"/>
<path d="M53.8188 6.1322H55.9445V4.08818H53.8188V6.1322Z" fill="white"/>
<path d="M53.8188 8.17615H55.9445V6.13212H53.8188V8.17615Z" fill="white"/>
<path d="M51.693 8.17615H53.8188V6.13212H51.693V8.17615Z" fill="white"/>
<path d="M53.8188 10.2203H55.9445V8.17631H53.8188V10.2203Z" fill="white"/>
<path d="M55.9446 4.08813H58.0703V2.04411H55.9446V4.08813Z" fill="white"/>
<path d="M55.9446 6.1322H58.0703V4.08818H55.9446V6.1322Z" fill="white"/>
<path d="M55.9446 8.17615H58.0703V6.13212H55.9446V8.17615Z" fill="white"/>
<path d="M55.9446 10.2203H58.0703V8.17631H55.9446V10.2203Z" fill="white"/>
<path d="M55.9446 12.2643H58.0703V10.2203H55.9446V12.2643Z" fill="white"/>
<path d="M58.0431 2.04419H60.1689V0.000164032H58.0431V2.04419Z" fill="white"/>
<path d="M58.0431 4.08813H60.1689V2.04411H58.0431V4.08813Z" fill="white"/>
<path d="M58.0431 6.1322H60.1689V4.08818H58.0431V6.1322Z" fill="white"/>
<path d="M58.0431 8.17615H60.1689V6.13212H58.0431V8.17615Z" fill="white"/>
<path d="M58.0431 10.2203H60.1689V8.17631H58.0431V10.2203Z" fill="white"/>
<path d="M58.0431 12.2643H60.1689V10.2203H58.0431V12.2643Z" fill="white"/>
<path d="M58.0431 14.3082H60.1689V12.2642H58.0431V14.3082Z" fill="white"/>
<path d="M45.3429 14.3082H47.4687V12.2642H45.3429V14.3082Z" fill="white"/>
<path d="M45.3429 16.3523H47.4687V14.3083H45.3429V16.3523Z" fill="white"/>
<path d="M45.3429 18.3962H47.4687V16.3522H45.3429V18.3962Z" fill="white"/>
<path d="M47.4687 12.2643H49.5944V10.2203H47.4687V12.2643Z" fill="white"/>
<path d="M47.4687 14.3082H49.5944V12.2642H47.4687V14.3082Z" fill="white"/>
<path d="M47.4687 16.3523H49.5944V14.3083H47.4687V16.3523Z" fill="white"/>
<path d="M47.4687 18.3962H49.5944V16.3522H47.4687V18.3962Z" fill="white"/>
<path d="M47.4687 20.4404H49.5944V18.3964H47.4687V20.4404Z" fill="white"/>
<path d="M49.5945 10.2203H51.7202V8.17631H49.5945V10.2203Z" fill="white"/>
<path d="M49.5945 12.2643H51.7202V10.2203H49.5945V12.2643Z" fill="white"/>
<path d="M49.5945 14.3082H51.7202V12.2642H49.5945V14.3082Z" fill="white"/>
<path d="M49.5945 16.3523H51.7202V14.3083H49.5945V16.3523Z" fill="white"/>
<path d="M49.5945 18.3962H51.7202V16.3522H49.5945V18.3962Z" fill="white"/>
<path d="M49.5945 20.4404H51.7202V18.3964H49.5945V20.4404Z" fill="white"/>
<path d="M49.5945 22.4844H51.7202V20.4403H49.5945V22.4844Z" fill="white"/>
<path d="M58.0703 12.2643H55.9445V14.3083H58.0703V12.2643Z" fill="white"/>
<path d="M58.0703 14.3082H55.9445V16.3523H58.0703V14.3082Z" fill="white"/>
<path d="M60.1961 14.3082H58.0703V16.3523H60.1961V14.3082Z" fill="white"/>
<path d="M58.0703 16.3523H55.9445V18.3963H58.0703V16.3523Z" fill="white"/>
<path d="M55.9446 10.2203H53.8188V12.2644H55.9446V10.2203Z" fill="white"/>
<path d="M55.9446 12.2643H53.8188V14.3083H55.9446V12.2643Z" fill="white"/>
<path d="M55.9446 14.3082H53.8188V16.3523H55.9446V14.3082Z" fill="white"/>
<path d="M55.9446 16.3523H53.8188V18.3963H55.9446V16.3523Z" fill="white"/>
<path d="M55.9446 18.3962H53.8188V20.4403H55.9446V18.3962Z" fill="white"/>
<path d="M53.846 8.17615H51.7202V10.2202H53.846V8.17615Z" fill="white"/>
<path d="M53.846 10.2203H51.7202V12.2644H53.846V10.2203Z" fill="white"/>
<path d="M53.846 12.2643H51.7202V14.3083H53.846V12.2643Z" fill="white"/>
<path d="M53.846 14.3082H51.7202V16.3523H53.846V14.3082Z" fill="white"/>
<path d="M53.846 16.3523H51.7202V18.3963H53.846V16.3523Z" fill="white"/>
<path d="M53.846 18.3962H51.7202V20.4403H53.846V18.3962Z" fill="white"/>
<path d="M53.846 20.4404H51.7202V22.4845H53.846V20.4404Z" fill="white"/>
<path d="M3.04522 34.7484H0.919434V36.7924H3.04522V34.7484Z" fill="white"/>
<path d="M3.04522 36.7925H0.919434V38.8365H3.04522V36.7925Z" fill="white"/>
<path d="M3.04522 38.8367H0.919434V40.8807H3.04522V38.8367Z" fill="white"/>
<path d="M5.17102 38.8367H3.04523V40.8807H5.17102V38.8367Z" fill="white"/>
<path d="M7.26958 38.8367H5.1438V40.8807H7.26958V38.8367Z" fill="white"/>
<path d="M9.39531 36.7925H7.26953V38.8365H9.39531V36.7925Z" fill="white"/>
<path d="M11.5211 34.7484H9.39532V36.7924H11.5211V34.7484Z" fill="white"/>
<path d="M9.39531 40.8806H7.26953V42.9246H9.39531V40.8806Z" fill="white"/>
<path d="M11.5211 42.9246H9.39532V44.9686H11.5211V42.9246Z" fill="white"/>
<path d="M15.7454 40.8806H13.6196V42.9246H15.7454V40.8806Z" fill="white"/>
<path d="M15.7454 38.8367H13.6196V40.8807H15.7454V38.8367Z" fill="white"/>
<path d="M15.7454 36.7925H13.6196V38.8365H15.7454V36.7925Z" fill="white"/>
<path d="M24.194 40.8806H22.0682V42.9246H24.194V40.8806Z" fill="white"/>
<path d="M24.194 38.8367H22.0682V40.8807H24.194V38.8367Z" fill="white"/>
<path d="M28.4456 34.7484H26.3198V36.7924H28.4456V34.7484Z" fill="white"/>
<path d="M30.5441 34.7484H28.4184V36.7924H30.5441V34.7484Z" fill="white"/>
<path d="M32.6699 34.7484H30.5442V36.7924H32.6699V34.7484Z" fill="white"/>
<path d="M32.6699 36.7925H30.5442V38.8365H32.6699V36.7925Z" fill="white"/>
<path d="M32.6699 38.8367H30.5442V40.8807H32.6699V38.8367Z" fill="white"/>
<path d="M32.6699 40.8806H30.5442V42.9246H32.6699V40.8806Z" fill="white"/>
<path d="M32.6699 42.9246H30.5442V44.9686H32.6699V42.9246Z" fill="white"/>
<path d="M34.7957 34.7484H32.6699V36.7924H34.7957V34.7484Z" fill="white"/>
<path d="M36.8942 34.7484H34.7685V36.7924H36.8942V34.7484Z" fill="white"/>
<path d="M41.1458 34.7484H39.02V36.7924H41.1458V34.7484Z" fill="white"/>
<path d="M43.2443 34.7484H41.1186V36.7924H43.2443V34.7484Z" fill="white"/>
<path d="M45.3701 34.7484H43.2444V36.7924H45.3701V34.7484Z" fill="white"/>
<path d="M45.3701 36.7925H43.2444V38.8365H45.3701V36.7925Z" fill="white"/>
<path d="M45.3701 38.8367H43.2444V40.8807H45.3701V38.8367Z" fill="white"/>
<path d="M55.9446 38.8367H53.8188V40.8807H55.9446V38.8367Z" fill="white"/>
<path d="M58.0703 38.8367H55.9445V40.8807H58.0703V38.8367Z" fill="white"/>
<path d="M60.1688 38.8367H58.0431V40.8807H60.1688V38.8367Z" fill="white"/>
<path d="M45.3701 40.8806H43.2444V42.9246H45.3701V40.8806Z" fill="white"/>
<path d="M45.3701 42.9246H43.2444V44.9686H45.3701V42.9246Z" fill="white"/>
<path d="M47.4959 34.7484H45.3701V36.7924H47.4959V34.7484Z" fill="white"/>
<path d="M49.5944 34.7484H47.4687V36.7924H49.5944V34.7484Z" fill="white"/>
<path d="M41.1458 42.9246H39.02V44.9686H41.1458V42.9246Z" fill="white"/>
<path d="M43.2443 42.9246H41.1186V44.9686H43.2443V42.9246Z" fill="white"/>
<path d="M47.4959 42.9246H45.3701V44.9686H47.4959V42.9246Z" fill="white"/>
<path d="M49.5944 42.9246H47.4687V44.9686H49.5944V42.9246Z" fill="white"/>
<path d="M83.4708 34.7484H81.345V36.7924H83.4708V34.7484Z" fill="white"/>
<path d="M85.5693 34.7484H83.4435V36.7924H85.5693V34.7484Z" fill="white"/>
<path d="M87.6951 34.7484H85.5693V36.7924H87.6951V34.7484Z" fill="white"/>
<path d="M87.6951 36.7925H85.5693V38.8365H87.6951V36.7925Z" fill="white"/>
<path d="M87.6951 38.8367H85.5693V40.8807H87.6951V38.8367Z" fill="white"/>
<path d="M87.6951 40.8806H85.5693V42.9246H87.6951V40.8806Z" fill="white"/>
<path d="M87.6951 42.9246H85.5693V44.9686H87.6951V42.9246Z" fill="white"/>
<path d="M89.8208 34.7484H87.695V36.7924H89.8208V34.7484Z" fill="white"/>
<path d="M91.9194 34.7484H89.7936V36.7924H91.9194V34.7484Z" fill="white"/>
<path d="M83.4708 42.9246H81.345V44.9686H83.4708V42.9246Z" fill="white"/>
<path d="M85.5693 42.9246H83.4435V44.9686H85.5693V42.9246Z" fill="white"/>
<path d="M89.8208 42.9246H87.695V44.9686H89.8208V42.9246Z" fill="white"/>
<path d="M91.9194 42.9246H89.7936V44.9686H91.9194V42.9246Z" fill="white"/>
<path d="M53.846 34.7484H51.7202V36.7924H53.846V34.7484Z" fill="white"/>
<path d="M55.9446 34.7484H53.8188V36.7924H55.9446V34.7484Z" fill="white"/>
<path d="M58.0703 34.7484H55.9445V36.7924H58.0703V34.7484Z" fill="white"/>
<path d="M53.846 36.7925H51.7202V38.8365H53.846V36.7925Z" fill="white"/>
<path d="M53.846 38.8367H51.7202V40.8807H53.846V38.8367Z" fill="white"/>
<path d="M53.846 40.8806H51.7202V42.9246H53.846V40.8806Z" fill="white"/>
<path d="M58.0703 42.9246H55.9445V44.9686H58.0703V42.9246Z" fill="white"/>
<path d="M60.1688 34.7484H58.0431V36.7924H60.1688V34.7484Z" fill="white"/>
<path d="M62.2946 34.7484H60.1689V36.7924H62.2946V34.7484Z" fill="white"/>
<path d="M62.2946 36.7925H60.1689V38.8365H62.2946V36.7925Z" fill="white"/>
<path d="M62.2946 40.8806H60.1689V42.9246H62.2946V40.8806Z" fill="white"/>
<path d="M53.846 42.9246H51.7202V44.9686H53.846V42.9246Z" fill="white"/>
<path d="M55.9446 42.9246H53.8188V44.9686H55.9446V42.9246Z" fill="white"/>
<path d="M60.1688 42.9246H58.0431V44.9686H60.1688V42.9246Z" fill="white"/>
<path d="M62.2946 42.9246H60.1689V44.9686H62.2946V42.9246Z" fill="white"/>
<path d="M72.8964 38.8367H70.7706V40.8807H72.8964V38.8367Z" fill="white"/>
<path d="M74.9949 38.8367H72.8691V40.8807H74.9949V38.8367Z" fill="white"/>
<path d="M77.1207 38.8367H74.9949V40.8807H77.1207V38.8367Z" fill="white"/>
<path d="M79.2192 38.8367H77.0934V40.8807H79.2192V38.8367Z" fill="white"/>
<path d="M70.7706 34.7484H68.6448V36.7924H70.7706V34.7484Z" fill="white"/>
<path d="M72.8964 34.7484H70.7706V36.7924H72.8964V34.7484Z" fill="white"/>
<path d="M74.9949 34.7484H72.8691V36.7924H74.9949V34.7484Z" fill="white"/>
<path d="M70.7706 36.7925H68.6448V38.8365H70.7706V36.7925Z" fill="white"/>
<path d="M70.7706 38.8367H68.6448V40.8807H70.7706V38.8367Z" fill="white"/>
<path d="M70.7706 40.8806H68.6448V42.9246H70.7706V40.8806Z" fill="white"/>
<path d="M77.1207 34.7484H74.9949V36.7924H77.1207V34.7484Z" fill="white"/>
<path d="M79.2192 34.7484H77.0934V36.7924H79.2192V34.7484Z" fill="white"/>
<path d="M79.2192 36.7925H77.0934V38.8365H79.2192V36.7925Z" fill="white"/>
<path d="M79.2192 40.8806H77.0934V42.9246H79.2192V40.8806Z" fill="white"/>
<path d="M70.7706 42.9246H68.6448V44.9686H70.7706V42.9246Z" fill="white"/>
<path d="M79.2192 42.9246H77.0934V44.9686H79.2192V42.9246Z" fill="white"/>
<path d="M66.519 42.9246H64.3932V44.9686H66.519V42.9246Z" fill="white"/>
<path d="M24.194 36.7925H22.0682V38.8365H24.194V36.7925Z" fill="white"/>
<path d="M17.8712 34.7484H15.7454V36.7924H17.8712V34.7484Z" fill="white"/>
<path d="M19.9697 34.7484H17.8439V36.7924H19.9697V34.7484Z" fill="white"/>
<path d="M22.0955 34.7484H19.9697V36.7924H22.0955V34.7484Z" fill="white"/>
<path d="M17.8712 42.9246H15.7454V44.9686H17.8712V42.9246Z" fill="white"/>
<path d="M19.9697 42.9246H17.8439V44.9686H19.9697V42.9246Z" fill="white"/>
<path d="M22.0955 42.9246H19.9697V44.9686H22.0955V42.9246Z" fill="white"/>
<path d="M3.04522 40.8806H0.919434V42.9246H3.04522V40.8806Z" fill="white"/>
<path d="M3.04522 42.9246H0.919434V44.9686H3.04522V42.9246Z" fill="white"/>
</g>
<defs>
<clipPath id="clip0_1_669">
<rect width="91" height="45" fill="white" transform="translate(0.919434)"/>
</clipPath>
</defs>
</svg>
